<svg width="160" height="40" viewBox="0 0 160 40" fill="none" xmlns="http://www.w3.org/2000/svg">
  <rect width="160" height="40" rx="12" fill="#A41E34"/>
  <path d="M20.632 27V13.4H24.232V24.36H31.624V27H20.632ZM34.0671 27V13.4H37.6671V27H34.0671ZM42.0097 27V13.4H45.6097V21.216L52.1377 13.4H56.3297L49.2897 21.52L56.6177 27H52.3137L45.6097 21.904V27H42.0097ZM63.5521 27.32C61.9221 27.32 60.5181 26.896 59.3401 26.048C58.1841 25.2 57.3921 24.056 56.9641 22.616C56.5361 21.176 56.5161 19.64 56.9041 18.008C57.2921 16.376 58.1001 15.032 59.3281 13.976C60.5561 12.92 62.0401 12.392 63.7801 12.392C65.5401 12.392 67.0161 12.92 68.2081 13.976C69.4001 15.032 70.1921 16.376 70.5841 18.008C70.9761 19.64 70.9441 21.176 70.4881 22.616C70.0541 24.056 69.2401 25.2 68.0461 26.048C66.8521 26.896 65.3621 27.32 63.5761 27.32H63.5521ZM63.6841 24.44C64.4521 24.44 65.1241 24.192 65.7001 23.696C66.2761 23.2 66.6881 22.504 66.9361 21.608C67.1841 20.712 67.2201 19.752 67.0441 18.728C66.8681 17.704 66.4521 16.904 65.7961 16.328C65.1401 15.752 64.3641 15.464 63.4681 15.464C62.7001 15.464 62.0321 15.712 61.4641 16.208C60.8961 16.704 60.4881 17.4 60.2401 18.296C59.9921 19.192 59.9601 20.152 60.1441 21.176C60.3281 22.2 60.7441 23 61.3921 23.576C62.0401 24.152 62.7961 24.44 63.6601 24.44H63.6841Z" fill="white"/>
  <text x="78" y="25" fill="white" font-family="'Sora', 'Helvetica Neue', Arial, sans-serif" font-size="16" font-weight="600">LifeLens</text>
</svg>
